# xmcd
#
# Track frame offsets:
#	300
#	16189
#	27737
#	43714
#	57961
#	76336
#	97411
#	111962
#	124412
#	138960
#	156063
#	169637
#	185761
#	199337
#	216136
#	234362
#	247861
#
# Disc length: 3478 seconds
#
# Revision: 0
# Processed by: cddbd v1.5.2PL0 Copyright (c) Steve Scherf et al.
# Submitted via: audiograbber 1.83.01
#
DISCID=f10d9211
DTITLE=Geraldine Olivier - Weihnachten mit Geraldine Olivier
DYEAR=2000
DGENRE=Weihnachten
TTITLE0=Lichter ohne Grenzen
TTITLE1=Leise rieselt der Schnee
TTITLE2=Weiße Weihnacht
TTITLE3=Wo bleibt der Winter und der Schnee
TTITLE4=Weihnachten ist für alle da  
TTITLE5=Es war einmal ein Stern allein
TTITLE6=Aber Heidschi Bumbeidschi
TTITLE7=Hallo, Du süßer Weihnachtsmann
TTITLE8=Sing ein Lied
TTITLE9=Petit Enfant Jesu
TTITLE10=Bimmelbahn
TTITLE11=Du bringst Weihnachten heim
TTITLE12=Ich wünsch` mir den größten Weihnachtsbaum
TTITLE13=Petit Papa Noel
TTITLE14=Es riecht nach Schnee, juchhe 
TTITLE15=Ave Maria
TTITLE16=Stille Nacht
EXTD=
EXTT0=
EXTT1=
EXTT2=
EXTT3=
EXTT4=
EXTT5=
EXTT6=
EXTT7=
EXTT8=
EXTT9=
EXTT10=
EXTT11=
EXTT12=
EXTT13=
EXTT14=
EXTT15=
EXTT16=
PLAYORDER=
